<svg width="28" height="28" viewBox="0 0 28 28" fill="none" xmlns="http://www.w3.org/2000/svg">
<path d="M0.878484 0H0.868114C0.742522 0.000653588 0.618537 0.0318152 0.504639 0.0913536C0.39074 0.150892 0.289616 0.237403 0.208181 0.344969C0.126747 0.452535 0.0669234 0.578618 0.0328027 0.714596C-0.00131804 0.850575 -0.00893109 0.993239 0.0104842 1.13283L3.69611 26.3083C3.79048 26.9418 4.27997 27.4108 4.85137 27.4167H22.536C22.7438 27.419 22.9456 27.3375 23.1048 27.1871C23.2639 27.0367 23.3701 26.8272 23.404 26.5965L27.0896 1.1375C27.109 0.998003 27.1014 0.855438 27.0674 0.719542C27.0333 0.583646 26.9736 0.457622 26.8922 0.350075C26.8109 0.242529 26.7099 0.155995 26.5961 0.0963836C26.4824 0.0367721 26.3585 0.00548756 26.233 0.00466668H26.2216L0.878484 0ZM16.4009 18.1942H10.7563L9.22767 9.212H17.7687L16.3998 18.1953L16.4009 18.1942Z" fill="white"/>
</svg>
